<?xml version="1.0" encoding="utf-8"?>
<svg xmlns="http://www.w3.org/2000/svg" fill="none" version="1.1" viewBox="-29.3465 -738.008 622.331 764.063" x="-29.3465pt" y="-738.008pt" width="622.331pt" height="764.063pt" stroke-width="0.566929" stroke-miterlimit="10.000000">
 <g stroke-width="1.133858">
  <path d="M28.3465 -3.54331L31.8898 -3.54331L31.8898 3.54331L28.3465 3.54331Z" stroke="black" fill="#000"/>
 </g>
 <g stroke-width="1.133858">
  <path d="M-28.3465 7.08661L28.3465 7.08661L28.3465 -7.08661L-28.3465 -7.08661Z" stroke="black"/>
 </g>
 <g stroke-width="1.133858">
  <path d="M-3.54327 -170.079L-3.54326 -173.622L3.54335 -173.622L3.54334 -170.079Z" stroke="black" fill="#000"/>
 </g>
 <g stroke-width="1.133858">
  <path d="M7.08658 -113.386L7.08665 -170.079L-7.08658 -170.079L-7.08665 -113.386Z" stroke="black"/>
 </g>
 <g stroke-width="1.133858">
  <path d="M541.874 15.033L581.962 -25.055L584.468 -22.5495L544.38 17.5385Z" stroke="#7f7f7f"/>
 </g>
 <g stroke-width="1.133858">
  <path d="M551.896 25.055L591.984 -15.033L581.962 -25.055L541.874 15.033Z" stroke="black"/>
 </g>
 <g stroke-width="1.133858">
  <path d="M581.962 -116.677L541.874 -156.765L544.38 -159.271L584.468 -119.183Z" stroke="#7f7f7f"/>
 </g>
 <g stroke-width="1.133858">
  <path d="M591.984 -126.699L551.896 -166.787L541.874 -156.765L581.962 -116.677Z" stroke="black"/>
 </g>
 <g stroke-width="1.133858">
  <path d="M268.432 -166.787L308.52 -126.699L306.014 -124.194L265.926 -164.282Z" stroke="#7f7f7f"/>
 </g>
 <g stroke-width="1.133858">
  <path d="M258.41 -156.765L298.498 -116.677L308.52 -126.699L268.432 -166.787Z" stroke="black"/>
 </g>
 <g stroke-width="1.133858">
  <path d="M255.118 -255.118L311.811 -311.811" stroke="black"/>
 </g>
 <g stroke-width="1.133858">
  <path d="M255.118 -255.118L311.811 -255.118L311.811 -311.811L255.118 -311.811Z" stroke="black"/>
 </g>
 <g stroke-width="1.133858">
  <path d="M148.819 -255.118L148.819 -311.811L134.646 -311.811L134.646 -255.118Z" stroke="black" fill="#000"/>
 </g>
 <g stroke-width="1.133858">
  <path d="M25.055 -723.694L-15.0331 -683.607L-17.5386 -686.112L22.5495 -726.2Z" stroke="#7f7f7f"/>
 </g>
 <g stroke-width="1.133858">
  <path d="M15.0331 -733.716L-25.055 -693.629L-15.0331 -683.607L25.055 -723.694Z" stroke="black"/>
 </g>
 <path d="M134.646 -737.008L148.819 -737.008L134.646 -680.315L148.819 -680.315Z" fill="#ccc"/>
 <g stroke-width="1.133858">
  <path d="M134.646 -737.008L148.819 -737.008L134.646 -680.315L148.819 -680.315Z" stroke="#000"/>
 </g>
</svg>
