<?xml version="1.0" encoding="utf-8"?>
<svg xmlns="http://www.w3.org/2000/svg" fill="none" version="1.1" viewBox="-1 -114.386 342.157 123.662" x="-1pt" y="-114.386pt" width="342.157pt" height="123.662pt" stroke-width="0.566929" stroke-miterlimit="10.000000">
 <path d="M0 -0L340.157 -0L340.157 -113.386L0 -113.386Z" fill="#fff"/>
 <g stroke-width="1.133858">
  <path d="M85.304 -20.2749L84.8093 -34.4395" stroke="black"/>
 </g>
 <g stroke-width="1.133858">
  <path d="M84.8093 -34.4395L141.468 -36.418" stroke="black"/>
 </g>
 <g stroke-width="1.133858">
  <path d="M141.962 -22.2534L85.304 -20.2749" stroke="black"/>
 </g>
 <g stroke-width="1.133858">
  <path d="M141.468 -36.418L141.962 -22.2534" stroke="black"/>
 </g>
 <g stroke-width="1.133858">
  <path d="M84.933 -30.8983L141.591 -32.8769" stroke="black"/>
 </g>
 <g stroke-width="1.133858">
  <path d="M153.773 8.2757L133.457 -44.6517" stroke="black"/>
 </g>
 <g stroke-width="1.133858">
  <path d="M133.457 -44.6517L186.384 -64.9686" stroke="black"/>
 </g>
 <g stroke-width="1.133858">
  <path d="M206.701 -12.0412L153.773 8.2757" stroke="black"/>
 </g>
 <g stroke-width="1.133858">
  <path d="M186.384 -64.9686L206.701 -12.0412" stroke="black"/>
 </g>
 <g stroke-width="1.133858">
  <path d="M186.384 -64.9686L153.773 8.2757" stroke="black"/>
 </g>
 <g stroke-width="1.133858">
  <path d="M26.6269 -46.6709L46.6709 -26.627" stroke="black"/>
 </g>
 <g stroke-width="1.133858">
  <path d="M26.6269 -46.6709L86.7589 -66.7149" stroke="black"/>
 </g>
 <g stroke-width="1.133858">
  <path d="M66.7149 -86.7589L46.6709 -26.627" stroke="black"/>
 </g>
 <g stroke-width="1.133858">
  <path d="M66.7149 -86.7589L86.7589 -66.7149" stroke="black"/>
 </g>
</svg>
