<?xml version="1.0" encoding="utf-8"?>
<svg xmlns="http://www.w3.org/2000/svg" fill="none" version="1.1" viewBox="-1 -114.386 342.157 123.662" x="-1pt" y="-114.386pt" width="342.157pt" height="123.662pt" stroke-width="0.566929" stroke-miterlimit="10.000000">
 <path d="M0 -0L340.157 -0L340.157 -113.386L0 -113.386Z" fill="#fff"/>
 <g stroke-width="1.133858">
  <path d="M93.102 -7.31534L85.5913 -19.3349" stroke="black"/>
 </g>
 <g stroke-width="1.133858">
  <path d="M85.5913 -19.3349L133.67 -49.3776" stroke="black"/>
 </g>
 <g stroke-width="1.133858">
  <path d="M141.18 -37.358L93.102 -7.31534" stroke="black"/>
 </g>
 <g stroke-width="1.133858">
  <path d="M133.67 -49.3776L141.18 -37.358" stroke="black"/>
 </g>
 <g stroke-width="1.133858">
  <path d="M87.469 -16.33L135.547 -46.3727" stroke="black"/>
 </g>
 <g stroke-width="0.283465">
  <path d="M85.5913 -19.3349L92.2768 -19.3343" stroke="black"/>
 </g>
 <g stroke-width="0.283465">
  <path d="M88.1218 -20.9161L94.8073 -20.9155" stroke="black"/>
 </g>
 <g stroke-width="0.283465">
  <path d="M90.6522 -22.4973L97.3377 -22.4967" stroke="black"/>
 </g>
 <g stroke-width="0.283465">
  <path d="M93.1826 -24.0785L99.8681 -24.0779" stroke="black"/>
 </g>
 <g stroke-width="0.283465">
  <path d="M95.7131 -25.6597L102.399 -25.6591" stroke="black"/>
 </g>
 <g stroke-width="0.283465">
  <path d="M98.2435 -27.2409L104.929 -27.2403" stroke="black"/>
 </g>
 <g stroke-width="0.283465">
  <path d="M100.774 -28.8221L107.459 -28.8214" stroke="black"/>
 </g>
 <g stroke-width="0.283465">
  <path d="M103.304 -30.4033L109.99 -30.4026" stroke="black"/>
 </g>
 <g stroke-width="0.283465">
  <path d="M105.835 -31.9845L112.52 -31.9838" stroke="black"/>
 </g>
 <g stroke-width="0.283465">
  <path d="M108.365 -33.5657L115.051 -33.565" stroke="black"/>
 </g>
 <g stroke-width="0.283465">
  <path d="M110.896 -35.1468L117.581 -35.1462" stroke="black"/>
 </g>
 <g stroke-width="0.283465">
  <path d="M113.426 -36.728L120.112 -36.7274" stroke="black"/>
 </g>
 <g stroke-width="0.283465">
  <path d="M115.957 -38.3092L122.642 -38.3086" stroke="black"/>
 </g>
 <g stroke-width="0.283465">
  <path d="M118.487 -39.8904L125.173 -39.8898" stroke="black"/>
 </g>
 <g stroke-width="0.283465">
  <path d="M121.017 -41.4716L127.703 -41.471" stroke="black"/>
 </g>
 <g stroke-width="0.283465">
  <path d="M123.548 -43.0528L130.233 -43.0522" stroke="black"/>
 </g>
 <g stroke-width="0.283465">
  <path d="M126.078 -44.634L132.764 -44.6334" stroke="black"/>
 </g>
 <g stroke-width="0.283465">
  <path d="M128.609 -46.2152L135.294 -46.2146" stroke="black"/>
 </g>
 <g stroke-width="0.283465">
  <path d="M131.139 -47.7964L137.825 -47.7957" stroke="black"/>
 </g>
 <g stroke-width="0.283465">
  <path d="M133.67 -49.3776L140.355 -49.3769" stroke="black"/>
 </g>
 <g stroke-width="1.133858">
  <path d="M153.773 8.2757L133.457 -44.6517" stroke="black"/>
 </g>
 <g stroke-width="1.133858">
  <path d="M133.457 -44.6517L186.384 -64.9686" stroke="black"/>
 </g>
 <g stroke-width="1.133858">
  <path d="M206.701 -12.0412L153.773 8.2757" stroke="black"/>
 </g>
 <g stroke-width="1.133858">
  <path d="M186.384 -64.9686L206.701 -12.0412" stroke="black"/>
 </g>
 <g stroke-width="1.133858">
  <path d="M186.384 -64.9686L153.773 8.2757" stroke="black"/>
 </g>
 <g stroke-width="1.133858">
  <path d="M26.6269 -46.6709L46.6709 -26.627" stroke="black"/>
 </g>
 <g stroke-width="1.133858">
  <path d="M26.6269 -46.6709L86.7589 -66.7149" stroke="black"/>
 </g>
 <g stroke-width="1.133858">
  <path d="M66.7149 -86.7589L46.6709 -26.627" stroke="black"/>
 </g>
 <g stroke-width="1.133858">
  <path d="M66.7149 -86.7589L86.7589 -66.7149" stroke="black"/>
 </g>
</svg>
